<svg width="38" height="38" viewBox="0 0 38 38" fill="none" xmlns="http://www.w3.org/2000/svg">
<rect width="38" height="38" rx="2" fill="#71B3C6"/>
<path d="M19.6807 18.4062C19.8952 18.6189 20.1814 18.7371 20.4674 18.7371C20.7773 18.7371 21.0634 18.6189 21.2541 18.4062L24.9492 14.5538C25.3544 14.1285 25.3544 13.4194 24.9014 13.0177C24.4724 12.5923 23.7572 12.6159 23.352 13.065L21.6655 14.8199C21.0126 15.4992 19.9249 15.4965 19.2754 14.8139C18.8702 14.3886 18.155 14.3649 17.726 14.7666C17.2969 15.1684 17.273 15.8774 17.6782 16.3028L19.6807 18.4062Z" fill="#D4DCE2"/>
<path d="M29.8127 12.3323C29.8128 12.3323 29.8128 12.3323 29.8127 12.3323C29.2168 12.1906 28.6208 12.545 28.5016 13.1358L26.9521 19.6588C26.7614 20.4861 26.0224 21.0532 25.1642 21.0532L17.4404 21.0534C16.5821 21.0534 15.8194 20.4389 15.6524 19.6117L13.5545 9.85083C13.4353 9.35443 13.0063 9 12.4818 9H9.09668C8.50071 9 8 9.4964 8 10.0873C8 10.6781 8.50071 11.1745 9.09668 11.1745H9.95865C10.9019 11.1745 11.7169 11.8335 11.9144 12.7559L13.483 20.0845C13.8883 21.9044 15.5332 23.2515 17.4164 23.2515H25.1164C26.9996 23.2515 28.597 21.9989 29.026 20.179L30.5755 13.656C30.7664 13.065 30.3849 12.4742 29.8127 12.3324C29.8127 12.3324 29.8127 12.3323 29.8127 12.3323Z" fill="#D4DCE2"/>
<path d="M19.1089 26.4891C19.1089 27.481 18.2978 28.2852 17.2971 28.2852C16.2965 28.2852 15.4854 27.481 15.4854 26.4891C15.4854 25.497 16.2965 24.6929 17.2971 24.6929C18.2978 24.6929 19.1089 25.497 19.1089 26.4891Z" fill="#D4DCE2"/>
<path d="M26.9283 26.4891C26.9283 27.481 26.1171 28.2852 25.1164 28.2852C24.1159 28.2852 23.3047 27.481 23.3047 26.4891C23.3047 25.497 24.1159 24.6929 25.1164 24.6929C26.1172 24.6929 26.9283 25.497 26.9283 26.4891Z" fill="#D4DCE2"/>
</svg>
