<svg width="121" height="139" viewBox="0 0 121 139" fill="none" xmlns="http://www.w3.org/2000/svg">
<rect width="121" height="139" rx="3" fill="#71B3C6" fill-opacity="0.85"/>
<path d="M22.0497 85C21.7164 85 21.408 84.925 21.1247 84.775C20.858 84.625 20.7247 84.4083 20.7247 84.125V67.575C20.7247 67.275 20.858 67.0583 21.1247 66.925C21.408 66.7917 21.7164 66.725 22.0497 66.725C22.383 66.725 22.683 66.7917 22.9497 66.925C23.233 67.0583 23.3747 67.275 23.3747 67.575V75.175L29.4747 67.1C29.658 66.85 29.908 66.725 30.2247 66.725C30.4414 66.725 30.6664 66.7917 30.8997 66.925C31.1497 67.0583 31.3497 67.2333 31.4997 67.45C31.6664 67.65 31.7497 67.8667 31.7497 68.1C31.7497 68.1667 31.733 68.25 31.6997 68.35C31.6664 68.45 31.6164 68.5417 31.5497 68.625L26.7497 74.625L32.4497 83.3C32.5497 83.45 32.5997 83.6083 32.5997 83.775C32.5997 83.9917 32.5247 84.2 32.3747 84.4C32.2247 84.6 32.0247 84.7667 31.7747 84.9C31.5414 85.0167 31.2997 85.075 31.0497 85.075C30.8664 85.075 30.6914 85.0417 30.5247 84.975C30.358 84.8917 30.2164 84.7583 30.0997 84.575L24.9997 76.85L23.3747 78.9V84.125C23.3747 84.4083 23.233 84.625 22.9497 84.775C22.683 84.925 22.383 85 22.0497 85ZM36.4245 70.175C36.0078 70.175 35.6495 70.0333 35.3495 69.75C35.0495 69.4667 34.8995 69.15 34.8995 68.8C34.8995 68.4167 35.0495 68.0917 35.3495 67.825C35.6495 67.5583 36.0078 67.425 36.4245 67.425C36.8412 67.425 37.1912 67.5583 37.4745 67.825C37.7745 68.0917 37.9245 68.4167 37.9245 68.8C37.9245 69.15 37.7745 69.4667 37.4745 69.75C37.1912 70.0333 36.8412 70.175 36.4245 70.175ZM36.4245 85C36.0412 85 35.7245 84.9083 35.4745 84.725C35.2412 84.5417 35.1245 84.3417 35.1245 84.125V74C35.1245 73.75 35.2412 73.55 35.4745 73.4C35.7245 73.2333 36.0412 73.15 36.4245 73.15C36.7912 73.15 37.0995 73.2333 37.3495 73.4C37.6162 73.55 37.7495 73.75 37.7495 74V84.125C37.7495 84.3417 37.6162 84.5417 37.3495 84.725C37.0995 84.9083 36.7912 85 36.4245 85ZM45.9212 85C44.5045 85 43.4212 84.6917 42.6712 84.075C41.9212 83.4417 41.5462 82.45 41.5462 81.1V68.575C41.5462 68.325 41.6795 68.125 41.9462 67.975C42.2295 67.8083 42.5295 67.725 42.8462 67.725C43.1629 67.725 43.4629 67.8083 43.7462 67.975C44.0295 68.125 44.1712 68.325 44.1712 68.575V73.15H47.2212C47.4545 73.15 47.6295 73.25 47.7462 73.45C47.8795 73.65 47.9462 73.875 47.9462 74.125C47.9462 74.375 47.8795 74.6 47.7462 74.8C47.6295 75 47.4545 75.1 47.2212 75.1H44.1712V81.1C44.1712 81.7 44.2962 82.125 44.5462 82.375C44.8129 82.625 45.2712 82.75 45.9212 82.75H46.7712C47.1545 82.75 47.4379 82.8667 47.6212 83.1C47.8212 83.3167 47.9212 83.575 47.9212 83.875C47.9212 84.1583 47.8212 84.4167 47.6212 84.65C47.4379 84.8833 47.1545 85 46.7712 85H45.9212ZM55.5046 85.2C54.3046 85.2 53.3129 84.9833 52.5296 84.55C51.7629 84.1167 51.1963 83.525 50.8296 82.775C50.4629 82.025 50.2796 81.175 50.2796 80.225V77.975C50.2796 77.0417 50.4629 76.2 50.8296 75.45C51.1963 74.6833 51.7629 74.0833 52.5296 73.65C53.2963 73.2167 54.2713 73 55.4546 73C56.2213 73 56.8879 73.0917 57.4546 73.275C58.0379 73.4583 58.4879 73.6917 58.8046 73.975C59.1379 74.2417 59.3046 74.525 59.3046 74.825C59.3046 74.975 59.2546 75.1583 59.1546 75.375C59.0713 75.575 58.9463 75.75 58.7796 75.9C58.6296 76.0333 58.4463 76.1 58.2296 76.1C58.0629 76.1 57.8796 76.0333 57.6796 75.9C57.4963 75.7667 57.2463 75.6417 56.9296 75.525C56.6129 75.3917 56.1879 75.325 55.6546 75.325C54.7213 75.325 54.0296 75.5583 53.5796 76.025C53.1296 76.4917 52.9046 77.1417 52.9046 77.975V80.225C52.9046 81.0583 53.1296 81.7083 53.5796 82.175C54.0296 82.6417 54.7296 82.875 55.6796 82.875C56.2296 82.875 56.6629 82.8083 56.9796 82.675C57.2963 82.525 57.5463 82.3833 57.7296 82.25C57.9296 82.1167 58.1213 82.05 58.3046 82.05C58.5379 82.05 58.7379 82.1167 58.9046 82.25C59.0879 82.3833 59.2213 82.55 59.3046 82.75C59.4046 82.95 59.4546 83.1333 59.4546 83.3C59.4546 83.5833 59.2796 83.875 58.9296 84.175C58.5963 84.475 58.1296 84.725 57.5296 84.925C56.9463 85.1083 56.2713 85.2 55.5046 85.2ZM63.7747 85C63.3914 85 63.0747 84.9083 62.8247 84.725C62.5914 84.5417 62.4747 84.3417 62.4747 84.125V66.95C62.4747 66.7 62.5914 66.5 62.8247 66.35C63.0747 66.1833 63.3914 66.1 63.7747 66.1C64.1414 66.1 64.4497 66.1833 64.6997 66.35C64.9664 66.5 65.0997 66.7 65.0997 66.95V74.9C65.3497 74.4167 65.7414 73.9833 66.2747 73.6C66.8247 73.2 67.4997 73 68.2997 73C69.083 73 69.7997 73.225 70.4497 73.675C71.1164 74.1083 71.6497 74.7 72.0497 75.45C72.4497 76.1833 72.6497 77.0083 72.6497 77.925V84.125C72.6497 84.4083 72.508 84.625 72.2247 84.775C71.958 84.925 71.658 85 71.3247 85C71.0247 85 70.733 84.925 70.4497 84.775C70.1664 84.625 70.0247 84.4083 70.0247 84.125V77.925C70.0247 77.4917 69.908 77.075 69.6747 76.675C69.4414 76.275 69.133 75.95 68.7497 75.7C68.383 75.45 67.9664 75.325 67.4997 75.325C67.0997 75.325 66.7164 75.4333 66.3497 75.65C65.983 75.85 65.683 76.1417 65.4497 76.525C65.2164 76.9083 65.0997 77.375 65.0997 77.925V84.125C65.0997 84.3417 64.9664 84.5417 64.6997 84.725C64.4497 84.9083 64.1414 85 63.7747 85ZM81.7421 85.2C80.6088 85.2 79.6088 84.9917 78.7421 84.575C77.8754 84.1583 77.1921 83.5833 76.6921 82.85C76.1921 82.1 75.9421 81.225 75.9421 80.225V77.85C75.9421 76.9667 76.1754 76.1583 76.6421 75.425C77.1254 74.6917 77.7588 74.1083 78.5421 73.675C79.3254 73.225 80.1921 73 81.1421 73C82.0421 73 82.8671 73.2 83.6171 73.6C84.3671 73.9833 84.9671 74.525 85.4171 75.225C85.8838 75.925 86.1171 76.725 86.1171 77.625C86.1171 78.325 86.0088 78.825 85.7921 79.125C85.5754 79.425 85.2921 79.6083 84.9421 79.675C84.5921 79.7417 84.2254 79.775 83.8421 79.775H78.5671V80.35C78.5671 81.1833 78.8671 81.85 79.4671 82.35C80.0838 82.8333 80.8671 83.075 81.8171 83.075C82.4004 83.075 82.8754 82.9917 83.2421 82.825C83.6088 82.6583 83.9171 82.5 84.1671 82.35C84.4171 82.2 84.6504 82.125 84.8671 82.125C85.0838 82.125 85.2671 82.1917 85.4171 82.325C85.5671 82.4583 85.6838 82.6167 85.7671 82.8C85.8504 82.9833 85.8921 83.15 85.8921 83.3C85.8921 83.55 85.7171 83.825 85.3671 84.125C85.0338 84.425 84.5588 84.6833 83.9421 84.9C83.3254 85.1 82.5921 85.2 81.7421 85.2ZM78.5671 78.15H82.7171C83.0838 78.15 83.3254 78.1 83.4421 78C83.5754 77.9 83.6421 77.7 83.6421 77.4C83.6421 76.9667 83.5338 76.5667 83.3171 76.2C83.1004 75.8167 82.8004 75.525 82.4171 75.325C82.0338 75.1083 81.6004 75 81.1171 75C80.6504 75 80.2254 75.1 79.8421 75.3C79.4588 75.5 79.1504 75.775 78.9171 76.125C78.6838 76.475 78.5671 76.8833 78.5671 77.35V78.15ZM90.6823 85C90.299 85 89.9823 84.9083 89.7323 84.725C89.499 84.5417 89.3823 84.3417 89.3823 84.125V74C89.3823 73.75 89.499 73.55 89.7323 73.4C89.9823 73.2333 90.299 73.15 90.6823 73.15C90.999 73.15 91.274 73.2333 91.5073 73.4C91.7407 73.55 91.8573 73.75 91.8573 74V74.9C92.1073 74.4167 92.5157 73.9833 93.0823 73.6C93.6657 73.2 94.374 73 95.2073 73C95.9907 73 96.7073 73.225 97.3573 73.675C98.024 74.1083 98.5573 74.7 98.9573 75.45C99.3573 76.1833 99.5573 77.0083 99.5573 77.925V84.125C99.5573 84.4083 99.4157 84.625 99.1323 84.775C98.8657 84.925 98.5657 85 98.2323 85C97.9323 85 97.6407 84.925 97.3573 84.775C97.074 84.625 96.9323 84.4083 96.9323 84.125V77.925C96.9323 77.4917 96.8157 77.075 96.5823 76.675C96.3657 76.275 96.0657 75.95 95.6823 75.7C95.299 75.45 94.874 75.325 94.4073 75.325C94.0073 75.325 93.624 75.4333 93.2573 75.65C92.8907 75.85 92.5907 76.1417 92.3573 76.525C92.124 76.9083 92.0073 77.375 92.0073 77.925V84.125C92.0073 84.3417 91.874 84.5417 91.6073 84.725C91.3573 84.9083 91.049 85 90.6823 85Z" fill="white"/>
</svg>
