<svg width="38" height="38" viewBox="0 0 38 38" fill="none" xmlns="http://www.w3.org/2000/svg">
<circle cx="19" cy="19" r="19" fill="#71B3C6"/>
<path d="M7.912 15.44H9.052L12.22 19.964C12.364 20.172 12.5 20.38 12.628 20.588C12.756 20.796 12.864 20.984 12.952 21.152H12.976C12.936 20.56 12.916 19.972 12.916 19.388C12.916 18.796 12.916 18.2 12.916 17.6V15.44H14.152V23H13.012L9.928 18.62C9.776 18.404 9.628 18.172 9.484 17.924C9.34 17.668 9.216 17.44 9.112 17.24H9.088C9.128 17.864 9.148 18.484 9.148 19.1C9.148 19.708 9.148 20.32 9.148 20.936V23H7.912V15.44ZM21.2905 20.384H17.3185V20.432C17.3185 21.008 17.4865 21.444 17.8225 21.74C18.1585 22.036 18.6025 22.184 19.1545 22.184C19.4585 22.184 19.7305 22.16 19.9705 22.112C20.2185 22.056 20.4665 21.972 20.7145 21.86L20.9545 22.76C20.7225 22.864 20.4465 22.948 20.1265 23.012C19.8065 23.084 19.4545 23.12 19.0705 23.12C18.6625 23.12 18.2745 23.064 17.9065 22.952C17.5385 22.84 17.2145 22.664 16.9345 22.424C16.6625 22.184 16.4465 21.88 16.2865 21.512C16.1265 21.144 16.0465 20.704 16.0465 20.192C16.0465 19.752 16.1105 19.352 16.2385 18.992C16.3745 18.624 16.5625 18.312 16.8025 18.056C17.0505 17.792 17.3465 17.592 17.6905 17.456C18.0425 17.312 18.4305 17.24 18.8545 17.24C19.2225 17.24 19.5545 17.3 19.8505 17.42C20.1545 17.54 20.4105 17.712 20.6185 17.936C20.8345 18.152 20.9985 18.42 21.1105 18.74C21.2305 19.052 21.2905 19.4 21.2905 19.784V20.384ZM20.0185 19.52C20.0185 19.328 19.9945 19.148 19.9465 18.98C19.8985 18.812 19.8265 18.668 19.7305 18.548C19.6345 18.42 19.5065 18.32 19.3465 18.248C19.1945 18.168 19.0105 18.128 18.7945 18.128C18.3945 18.128 18.0665 18.256 17.8105 18.512C17.5625 18.768 17.4105 19.112 17.3545 19.544L20.0185 19.52ZM22.3094 17.336H23.6174L24.5054 20.708L24.7214 22.052H24.7694L25.0334 20.708L25.9094 17.336H27.2294L28.1414 20.708L28.3934 22.052H28.4414L28.6934 20.708L29.5574 17.336H30.8174L29.1494 23H27.7214L26.8334 19.664L26.5694 18.272L26.2934 19.664L25.3814 23H24.0014L22.3094 17.336Z" fill="#D4DCE2"/>
</svg>
