<svg width="85" height="30" viewBox="0 0 85 30" fill="none" xmlns="http://www.w3.org/2000/svg">
<path d="M0 2C0 0.89543 0.895431 0 2 0H85V30H2C0.89543 30 0 29.1046 0 28V2Z" fill="#264A51"/>
<path d="M11.176 11.32C11.696 11.32 12.176 11.404 12.616 11.572C13.056 11.74 13.436 11.988 13.756 12.316C14.076 12.644 14.324 13.052 14.5 13.54C14.684 14.028 14.776 14.588 14.776 15.22C14.776 15.844 14.684 16.4 14.5 16.888C14.316 17.368 14.06 17.776 13.732 18.112C13.404 18.44 13.016 18.692 12.568 18.868C12.128 19.036 11.648 19.12 11.128 19.12C10.608 19.12 10.128 19.036 9.688 18.868C9.248 18.7 8.868 18.452 8.548 18.124C8.228 17.796 7.976 17.392 7.792 16.912C7.616 16.424 7.528 15.86 7.528 15.22C7.528 14.596 7.62 14.044 7.804 13.564C7.988 13.076 8.244 12.668 8.572 12.34C8.9 12.004 9.284 11.752 9.724 11.584C10.172 11.408 10.656 11.32 11.176 11.32ZM8.908 15.22C8.908 15.708 8.968 16.136 9.088 16.504C9.208 16.864 9.368 17.164 9.568 17.404C9.776 17.644 10.016 17.824 10.288 17.944C10.568 18.056 10.864 18.112 11.176 18.112C11.488 18.112 11.78 18.056 12.052 17.944C12.324 17.824 12.556 17.644 12.748 17.404C12.948 17.164 13.104 16.864 13.216 16.504C13.336 16.136 13.396 15.708 13.396 15.22C13.396 14.716 13.336 14.284 13.216 13.924C13.096 13.556 12.932 13.256 12.724 13.024C12.524 12.784 12.284 12.608 12.004 12.496C11.732 12.384 11.44 12.328 11.128 12.328C10.816 12.328 10.524 12.388 10.252 12.508C9.98 12.62 9.744 12.796 9.544 13.036C9.352 13.276 9.196 13.58 9.076 13.948C8.964 14.308 8.908 14.732 8.908 15.22ZM20.3846 13.336H21.6206V19H20.6726L20.5166 18.316H20.4686C20.2686 18.524 20.0166 18.712 19.7126 18.88C19.4086 19.04 19.0406 19.12 18.6086 19.12C18.0086 19.12 17.5286 18.952 17.1686 18.616C16.8086 18.28 16.6286 17.776 16.6286 17.104V13.336H17.8646V16.972C17.8646 17.412 17.9646 17.72 18.1646 17.896C18.3726 18.072 18.6206 18.16 18.9086 18.16C19.2206 18.16 19.4966 18.096 19.7366 17.968C19.9766 17.832 20.1926 17.656 20.3846 17.44V13.336ZM26.8394 14.248H25.2314V17.308C25.2314 17.588 25.2954 17.776 25.4234 17.872C25.5594 17.968 25.7394 18.016 25.9634 18.016C26.1234 18.016 26.2914 18 26.4674 17.968C26.6514 17.928 26.8114 17.884 26.9474 17.836L27.1394 18.748C26.9794 18.812 26.7714 18.872 26.5154 18.928C26.2674 18.976 26.0034 19 25.7234 19C25.1154 19 24.6754 18.876 24.4034 18.628C24.1394 18.372 24.0074 17.996 24.0074 17.5V14.248H23.1434V13.336H24.0074V11.548H25.2314V13.336H26.8394V14.248ZM37.2518 16.108C37.2518 16.58 37.1758 17.004 37.0238 17.38C36.8798 17.756 36.6798 18.072 36.4238 18.328C36.1678 18.584 35.8678 18.78 35.5238 18.916C35.1798 19.052 34.8078 19.12 34.4078 19.12C34.0078 19.12 33.6358 19.056 33.2918 18.928C32.9558 18.8 32.6598 18.616 32.4038 18.376C32.1558 18.128 31.9598 17.824 31.8158 17.464C31.6798 17.104 31.6118 16.692 31.6118 16.228C31.6118 15.748 31.6838 15.324 31.8278 14.956C31.9798 14.588 32.1838 14.276 32.4398 14.02C32.6958 13.764 32.9958 13.572 33.3398 13.444C33.6838 13.308 34.0558 13.24 34.4558 13.24C34.8558 13.24 35.2238 13.304 35.5598 13.432C35.9038 13.552 36.1998 13.732 36.4478 13.972C36.7038 14.212 36.8998 14.512 37.0358 14.872C37.1798 15.232 37.2518 15.644 37.2518 16.108ZM35.9678 16.168C35.9678 15.808 35.9238 15.504 35.8358 15.256C35.7478 15 35.6318 14.792 35.4878 14.632C35.3438 14.472 35.1798 14.356 34.9958 14.284C34.8118 14.212 34.6198 14.176 34.4198 14.176C34.2278 14.176 34.0398 14.208 33.8558 14.272C33.6718 14.336 33.5078 14.444 33.3638 14.596C33.2198 14.748 33.1038 14.952 33.0158 15.208C32.9358 15.464 32.8958 15.784 32.8958 16.168C32.8958 16.52 32.9398 16.824 33.0278 17.08C33.1158 17.336 33.2318 17.548 33.3758 17.716C33.5198 17.876 33.6838 17.996 33.8678 18.076C34.0598 18.148 34.2518 18.184 34.4438 18.184C34.6358 18.184 34.8238 18.152 35.0078 18.088C35.1918 18.024 35.3558 17.916 35.4998 17.764C35.6438 17.604 35.7558 17.396 35.8358 17.14C35.9238 16.876 35.9678 16.552 35.9678 16.168ZM41.2229 10.42C41.4709 10.42 41.7229 10.456 41.9789 10.528C42.2349 10.592 42.4629 10.676 42.6629 10.78L42.4109 11.62C42.2589 11.556 42.1109 11.504 41.9669 11.464C41.8309 11.424 41.6829 11.404 41.5229 11.404C41.1709 11.404 40.9149 11.504 40.7549 11.704C40.6029 11.896 40.5269 12.232 40.5269 12.712V13.336H42.1589V14.248H40.5269V19H39.3029V14.248H38.4629V13.336H39.3029V12.376C39.3029 11.752 39.4709 11.272 39.8069 10.936C40.1429 10.592 40.6149 10.42 41.2229 10.42ZM50.2029 14.488C49.9469 14.368 49.7069 14.284 49.4829 14.236C49.2669 14.18 49.0509 14.152 48.8349 14.152C48.4989 14.152 48.2429 14.216 48.0669 14.344C47.8989 14.464 47.8149 14.628 47.8149 14.836C47.8149 14.996 47.8789 15.136 48.0069 15.256C48.1349 15.368 48.3989 15.48 48.7989 15.592L49.1589 15.7C49.6789 15.86 50.0709 16.068 50.3349 16.324C50.6069 16.58 50.7429 16.924 50.7429 17.356C50.7429 17.884 50.5429 18.312 50.1429 18.64C49.7429 18.96 49.1949 19.12 48.4989 19.12C48.1229 19.12 47.7709 19.084 47.4429 19.012C47.1229 18.948 46.8349 18.856 46.5789 18.736L46.8669 17.8C47.0989 17.912 47.3469 18.004 47.6109 18.076C47.8749 18.148 48.1469 18.184 48.4269 18.184C48.7709 18.184 49.0389 18.124 49.2309 18.004C49.4229 17.884 49.5189 17.7 49.5189 17.452C49.5189 17.22 49.4309 17.056 49.2549 16.96C49.0869 16.856 48.8229 16.748 48.4629 16.636L48.0909 16.528C47.5869 16.36 47.2109 16.148 46.9629 15.892C46.7229 15.636 46.6029 15.3 46.6029 14.884C46.6029 14.636 46.6549 14.412 46.7589 14.212C46.8629 14.012 47.0069 13.84 47.1909 13.696C47.3749 13.552 47.5949 13.44 47.8509 13.36C48.1149 13.28 48.4029 13.24 48.7149 13.24C49.0109 13.24 49.3109 13.268 49.6149 13.324C49.9269 13.38 50.2149 13.468 50.4789 13.588L50.2029 14.488ZM55.5911 14.248H53.9831V17.308C53.9831 17.588 54.0471 17.776 54.1751 17.872C54.3111 17.968 54.4911 18.016 54.7151 18.016C54.8751 18.016 55.0431 18 55.2191 17.968C55.4031 17.928 55.5631 17.884 55.6991 17.836L55.8911 18.748C55.7311 18.812 55.5231 18.872 55.2671 18.928C55.0191 18.976 54.7551 19 54.4751 19C53.8671 19 53.4271 18.876 53.1551 18.628C52.8911 18.372 52.7591 17.996 52.7591 17.5V14.248H51.8951V13.336H52.7591V11.548H53.9831V13.336H55.5911V14.248ZM62.7565 16.108C62.7565 16.58 62.6805 17.004 62.5285 17.38C62.3845 17.756 62.1845 18.072 61.9285 18.328C61.6725 18.584 61.3725 18.78 61.0285 18.916C60.6845 19.052 60.3125 19.12 59.9125 19.12C59.5125 19.12 59.1405 19.056 58.7965 18.928C58.4605 18.8 58.1645 18.616 57.9085 18.376C57.6605 18.128 57.4645 17.824 57.3205 17.464C57.1845 17.104 57.1165 16.692 57.1165 16.228C57.1165 15.748 57.1885 15.324 57.3325 14.956C57.4845 14.588 57.6885 14.276 57.9445 14.02C58.2005 13.764 58.5005 13.572 58.8445 13.444C59.1885 13.308 59.5605 13.24 59.9605 13.24C60.3605 13.24 60.7285 13.304 61.0645 13.432C61.4085 13.552 61.7045 13.732 61.9525 13.972C62.2085 14.212 62.4045 14.512 62.5405 14.872C62.6845 15.232 62.7565 15.644 62.7565 16.108ZM61.4725 16.168C61.4725 15.808 61.4285 15.504 61.3405 15.256C61.2525 15 61.1365 14.792 60.9925 14.632C60.8485 14.472 60.6845 14.356 60.5005 14.284C60.3165 14.212 60.1245 14.176 59.9245 14.176C59.7325 14.176 59.5445 14.208 59.3605 14.272C59.1765 14.336 59.0125 14.444 58.8685 14.596C58.7245 14.748 58.6085 14.952 58.5205 15.208C58.4405 15.464 58.4005 15.784 58.4005 16.168C58.4005 16.52 58.4445 16.824 58.5325 17.08C58.6205 17.336 58.7365 17.548 58.8805 17.716C59.0245 17.876 59.1885 17.996 59.3725 18.076C59.5645 18.148 59.7565 18.184 59.9485 18.184C60.1405 18.184 60.3285 18.152 60.5125 18.088C60.6965 18.024 60.8605 17.916 61.0045 17.764C61.1485 17.604 61.2605 17.396 61.3405 17.14C61.4285 16.876 61.4725 16.552 61.4725 16.168ZM65.7796 16.984V19H64.5556V10.468H65.7796V15.7L67.9276 13.336H69.4396L67.1596 15.724L69.5476 19H68.0956L66.3076 16.456L65.7796 16.984ZM75.5928 16.384H71.6208V16.432C71.6208 17.008 71.7888 17.444 72.1248 17.74C72.4608 18.036 72.9048 18.184 73.4568 18.184C73.7608 18.184 74.0328 18.16 74.2728 18.112C74.5208 18.056 74.7688 17.972 75.0168 17.86L75.2568 18.76C75.0248 18.864 74.7488 18.948 74.4288 19.012C74.1088 19.084 73.7568 19.12 73.3728 19.12C72.9648 19.12 72.5768 19.064 72.2088 18.952C71.8408 18.84 71.5168 18.664 71.2368 18.424C70.9648 18.184 70.7488 17.88 70.5888 17.512C70.4288 17.144 70.3488 16.704 70.3488 16.192C70.3488 15.752 70.4128 15.352 70.5408 14.992C70.6768 14.624 70.8648 14.312 71.1048 14.056C71.3528 13.792 71.6488 13.592 71.9928 13.456C72.3448 13.312 72.7328 13.24 73.1568 13.24C73.5248 13.24 73.8568 13.3 74.1528 13.42C74.4568 13.54 74.7128 13.712 74.9208 13.936C75.1368 14.152 75.3008 14.42 75.4128 14.74C75.5328 15.052 75.5928 15.4 75.5928 15.784V16.384ZM74.3208 15.52C74.3208 15.328 74.2968 15.148 74.2488 14.98C74.2008 14.812 74.1288 14.668 74.0328 14.548C73.9368 14.42 73.8088 14.32 73.6488 14.248C73.4968 14.168 73.3128 14.128 73.0968 14.128C72.6968 14.128 72.3688 14.256 72.1128 14.512C71.8648 14.768 71.7128 15.112 71.6568 15.544L74.3208 15.52Z" fill="white"/>
</svg>
