<svg width="129" height="148" viewBox="0 0 129 148" fill="none" xmlns="http://www.w3.org/2000/svg">
<rect width="129" height="148" rx="3" fill="#71B3C6" fill-opacity="0.85"/>
<path d="M32.3587 84C32.0087 84 31.7254 83.9167 31.5087 83.75C31.292 83.5833 31.1837 83.3833 31.1837 83.15V66.575C31.1837 66.3417 31.292 66.1417 31.5087 65.975C31.7254 65.8083 32.0087 65.725 32.3587 65.725H36.7837C37.8337 65.725 38.7837 65.9083 39.6337 66.275C40.5004 66.6417 41.1754 67.2333 41.6587 68.05C42.1587 68.8667 42.4087 69.95 42.4087 71.3V78.425C42.4087 79.775 42.1587 80.8583 41.6587 81.675C41.1754 82.4917 40.5004 83.0833 39.6337 83.45C38.7837 83.8167 37.8337 84 36.7837 84H32.3587ZM33.8337 81.65H36.7837C37.717 81.65 38.442 81.3917 38.9587 80.875C39.492 80.3417 39.7587 79.525 39.7587 78.425V71.3C39.7587 70.2 39.492 69.3917 38.9587 68.875C38.442 68.3417 37.717 68.075 36.7837 68.075H33.8337V81.65ZM47.6159 69.175C47.1993 69.175 46.8409 69.0333 46.5409 68.75C46.2409 68.4667 46.0909 68.15 46.0909 67.8C46.0909 67.4167 46.2409 67.0917 46.5409 66.825C46.8409 66.5583 47.1993 66.425 47.6159 66.425C48.0326 66.425 48.3826 66.5583 48.6659 66.825C48.9659 67.0917 49.1159 67.4167 49.1159 67.8C49.1159 68.15 48.9659 68.4667 48.6659 68.75C48.3826 69.0333 48.0326 69.175 47.6159 69.175ZM47.6159 84C47.2326 84 46.9159 83.9083 46.6659 83.725C46.4326 83.5417 46.3159 83.3417 46.3159 83.125V73C46.3159 72.75 46.4326 72.55 46.6659 72.4C46.9159 72.2333 47.2326 72.15 47.6159 72.15C47.9826 72.15 48.2909 72.2333 48.5409 72.4C48.8076 72.55 48.9409 72.75 48.9409 73V83.125C48.9409 83.3417 48.8076 83.5417 48.5409 83.725C48.2909 83.9083 47.9826 84 47.6159 84ZM54.0876 84C53.7043 84 53.3876 83.9083 53.1376 83.725C52.9043 83.5417 52.7876 83.3417 52.7876 83.125V73C52.7876 72.75 52.9043 72.55 53.1376 72.4C53.3876 72.2333 53.7043 72.15 54.0876 72.15C54.4043 72.15 54.6793 72.2333 54.9126 72.4C55.1459 72.55 55.2626 72.75 55.2626 73V73.9C55.5126 73.4167 55.9209 72.9833 56.4876 72.6C57.0709 72.2 57.7793 72 58.6126 72C59.3959 72 60.1126 72.225 60.7626 72.675C61.4293 73.1083 61.9626 73.7 62.3626 74.45C62.7626 75.1833 62.9626 76.0083 62.9626 76.925V83.125C62.9626 83.4083 62.8209 83.625 62.5376 83.775C62.2709 83.925 61.9709 84 61.6376 84C61.3376 84 61.0459 83.925 60.7626 83.775C60.4793 83.625 60.3376 83.4083 60.3376 83.125V76.925C60.3376 76.4917 60.2209 76.075 59.9876 75.675C59.7709 75.275 59.4709 74.95 59.0876 74.7C58.7043 74.45 58.2793 74.325 57.8126 74.325C57.4126 74.325 57.0293 74.4333 56.6626 74.65C56.2959 74.85 55.9959 75.1417 55.7626 75.525C55.5293 75.9083 55.4126 76.375 55.4126 76.925V83.125C55.4126 83.3417 55.2793 83.5417 55.0126 83.725C54.7626 83.9083 54.4543 84 54.0876 84ZM68.0056 69.175C67.5889 69.175 67.2306 69.0333 66.9306 68.75C66.6306 68.4667 66.4806 68.15 66.4806 67.8C66.4806 67.4167 66.6306 67.0917 66.9306 66.825C67.2306 66.5583 67.5889 66.425 68.0056 66.425C68.4222 66.425 68.7722 66.5583 69.0556 66.825C69.3556 67.0917 69.5056 67.4167 69.5056 67.8C69.5056 68.15 69.3556 68.4667 69.0556 68.75C68.7722 69.0333 68.4222 69.175 68.0056 69.175ZM68.0056 84C67.6222 84 67.3056 83.9083 67.0556 83.725C66.8222 83.5417 66.7056 83.3417 66.7056 83.125V73C66.7056 72.75 66.8222 72.55 67.0556 72.4C67.3056 72.2333 67.6222 72.15 68.0056 72.15C68.3722 72.15 68.6806 72.2333 68.9306 72.4C69.1972 72.55 69.3306 72.75 69.3306 73V83.125C69.3306 83.3417 69.1972 83.5417 68.9306 83.725C68.6806 83.9083 68.3722 84 68.0056 84ZM74.4772 84C74.0939 84 73.7772 83.9083 73.5272 83.725C73.2939 83.5417 73.1772 83.3417 73.1772 83.125V73C73.1772 72.75 73.2939 72.55 73.5272 72.4C73.7772 72.2333 74.0939 72.15 74.4772 72.15C74.7939 72.15 75.0689 72.2333 75.3022 72.4C75.5356 72.55 75.6522 72.75 75.6522 73V73.9C75.9022 73.4167 76.3106 72.9833 76.8772 72.6C77.4606 72.2 78.1689 72 79.0022 72C79.7856 72 80.5022 72.225 81.1522 72.675C81.8189 73.1083 82.3522 73.7 82.7522 74.45C83.1522 75.1833 83.3522 76.0083 83.3522 76.925V83.125C83.3522 83.4083 83.2106 83.625 82.9272 83.775C82.6606 83.925 82.3606 84 82.0272 84C81.7272 84 81.4356 83.925 81.1522 83.775C80.8689 83.625 80.7272 83.4083 80.7272 83.125V76.925C80.7272 76.4917 80.6106 76.075 80.3772 75.675C80.1606 75.275 79.8606 74.95 79.4772 74.7C79.0939 74.45 78.6689 74.325 78.2022 74.325C77.8022 74.325 77.4189 74.4333 77.0522 74.65C76.6856 74.85 76.3856 75.1417 76.1522 75.525C75.9189 75.9083 75.8022 76.375 75.8022 76.925V83.125C75.8022 83.3417 75.6689 83.5417 75.4022 83.725C75.1522 83.9083 74.8439 84 74.4772 84ZM91.5702 89.625C90.6035 89.625 89.7119 89.4833 88.8952 89.2C88.0785 88.9333 87.4285 88.5417 86.9452 88.025C86.4619 87.5083 86.2202 86.8917 86.2202 86.175C86.2202 85.5083 86.4119 84.95 86.7952 84.5C87.1785 84.0667 87.6285 83.7333 88.1452 83.5C87.8119 83.35 87.5369 83.15 87.3202 82.9C87.1035 82.65 86.9952 82.3 86.9952 81.85C86.9952 81.3833 87.1119 81.0083 87.3452 80.725C87.5785 80.4417 87.8785 80.1833 88.2452 79.95C87.7785 79.5833 87.4119 79.1333 87.1452 78.6C86.8952 78.05 86.7702 77.45 86.7702 76.8V76.1C86.7702 75.3 86.9619 74.5917 87.3452 73.975C87.7285 73.3583 88.2702 72.875 88.9702 72.525C89.6869 72.175 90.5035 72 91.4202 72C91.9869 72 92.5119 72.075 92.9952 72.225C93.4952 72.375 93.9369 72.5833 94.3202 72.85C94.5869 72.2333 94.8535 71.8 95.1202 71.55C95.4035 71.3 95.6702 71.175 95.9202 71.175C96.2702 71.175 96.5369 71.275 96.7202 71.475C96.9035 71.675 96.9952 71.875 96.9952 72.075C96.9952 72.2083 96.9535 72.3333 96.8702 72.45C96.8035 72.55 96.7035 72.6333 96.5702 72.7C96.4035 72.7833 96.2035 72.9 95.9702 73.05C95.7535 73.1833 95.5369 73.4 95.3202 73.7C95.6035 74.0167 95.8119 74.3833 95.9452 74.8C96.0785 75.2167 96.1452 75.65 96.1452 76.1V76.8C96.1452 77.5833 95.9452 78.2917 95.5452 78.925C95.1452 79.5583 94.5869 80.0583 93.8702 80.425C93.1535 80.775 92.3369 80.95 91.4202 80.95C90.7702 80.95 90.1952 80.85 89.6952 80.65C89.5619 80.7333 89.4452 80.8333 89.3452 80.95C89.2619 81.05 89.2202 81.1833 89.2202 81.35C89.2202 81.65 89.4035 81.8667 89.7702 82C90.1369 82.1333 90.6035 82.2333 91.1702 82.3C91.7535 82.3667 92.3702 82.45 93.0202 82.55C93.6702 82.65 94.2785 82.8167 94.8452 83.05C95.4285 83.2667 95.9035 83.5917 96.2702 84.025C96.6369 84.475 96.8202 85.0833 96.8202 85.85C96.8202 86.7167 96.5785 87.425 96.0952 87.975C95.6119 88.5417 94.9702 88.9583 94.1702 89.225C93.3869 89.4917 92.5202 89.625 91.5702 89.625ZM91.5202 87.875C92.3369 87.875 92.9952 87.6917 93.4952 87.325C94.0119 86.975 94.2702 86.5083 94.2702 85.925C94.2702 85.5083 94.1452 85.1833 93.8952 84.95C93.6452 84.7167 93.3202 84.5417 92.9202 84.425C92.5202 84.3083 92.0952 84.225 91.6452 84.175C91.2119 84.125 90.7952 84.075 90.3952 84.025C89.9285 84.1917 89.5285 84.425 89.1952 84.725C88.8785 85.0417 88.7202 85.4333 88.7202 85.9C88.7202 86.5167 88.9785 87 89.4952 87.35C90.0285 87.7 90.7035 87.875 91.5202 87.875ZM91.4702 79.275C92.1369 79.275 92.6535 79.0417 93.0202 78.575C93.4035 78.1083 93.5952 77.5167 93.5952 76.8V76.1C93.5952 75.4167 93.4035 74.8417 93.0202 74.375C92.6535 73.9083 92.1285 73.675 91.4452 73.675C90.7619 73.675 90.2369 73.9083 89.8702 74.375C89.5035 74.8417 89.3202 75.4167 89.3202 76.1V76.775C89.3202 77.475 89.5035 78.0667 89.8702 78.55C90.2369 79.0333 90.7702 79.275 91.4702 79.275Z" fill="white"/>
</svg>
