<svg width="38" height="38" viewBox="0 0 38 38" fill="none" xmlns="http://www.w3.org/2000/svg">
<rect width="38" height="38" rx="2" fill="#71B3C6"/>
<path d="M27.0352 10.1413C28.2366 10.0663 29.2316 11.0619 29.1559 12.2632L28.9458 15.5963C28.9244 15.9363 28.6312 16.1945 28.2912 16.1726C27.9517 16.1508 27.6941 15.858 27.7156 15.5185L27.7448 15.0586C27.8076 14.0695 26.6143 13.5273 25.9106 14.2252L21.4915 18.6079C21.0075 19.0879 20.2281 19.0909 19.7404 18.6148L18.6292 17.5248C17.8484 16.7589 16.5973 16.7622 15.8206 17.5322L10.0463 23.2568C9.65874 23.641 9 23.3665 9 22.8207C9 22.6569 9.06548 22.4998 9.18187 22.3845L15.816 15.8119C16.5924 15.0426 17.8426 15.0391 18.6233 15.804L19.2032 16.3722C19.984 17.1373 21.2345 17.1336 22.0109 16.364L25.0157 13.3853C25.7231 12.684 25.1838 11.4804 24.1895 11.5417L23.721 11.5706C23.3847 11.5913 23.0953 11.3355 23.0747 10.9991C23.054 10.6631 23.3095 10.374 23.6455 10.353L27.0352 10.1413Z" fill="#D4DCE2"/>
<path d="M10.5195 26.2755C10.5195 25.3869 11.2399 24.6665 12.1285 24.6665C13.0171 24.6665 13.7375 25.3869 13.7375 26.2755V26.9841C13.7375 27.8727 13.0171 28.593 12.1285 28.593C11.2399 28.593 10.5195 27.8727 10.5195 26.9841V26.2755Z" fill="#D4DCE2"/>
<path d="M14.9756 23.3316C14.9756 22.443 15.6959 21.7227 16.5845 21.7227C17.4732 21.7227 18.1935 22.443 18.1935 23.3316V26.9854C18.1935 27.874 17.4732 28.5944 16.5845 28.5944C15.6959 28.5944 14.9756 27.874 14.9756 26.9854V23.3316Z" fill="#D4DCE2"/>
<path d="M19.4316 24.8028C19.4316 23.9142 20.152 23.1938 21.0406 23.1938C21.9292 23.1938 22.6496 23.9142 22.6496 24.8028V26.9837C22.6496 27.8723 21.9292 28.5927 21.0406 28.5927C20.152 28.5927 19.4316 27.8723 19.4316 26.9837V24.8028Z" fill="#D4DCE2"/>
<path d="M23.8867 21.1231C23.8867 20.2345 24.6071 19.5142 25.4957 19.5142C26.3843 19.5142 27.1046 20.2345 27.1046 21.1231V26.9855C27.1046 27.8741 26.3843 28.5945 25.4957 28.5945C24.6071 28.5945 23.8867 27.8741 23.8867 26.9855V21.1231Z" fill="#D4DCE2"/>
</svg>
