<svg width="38" height="38" viewBox="0 0 38 38" fill="none" xmlns="http://www.w3.org/2000/svg">
<rect width="38" height="38" rx="2" fill="#71B3C6"/>
<path d="M14.8739 10C11.646 10 9 12.7324 9 16.0649C9 17.9551 10.0666 19.6036 11.7276 21.4568C13.3886 23.31 15.7052 25.4333 18.4946 28.3159C18.7712 28.6008 19.2287 28.6009 19.5052 28.3159C22.3045 25.4327 24.6191 23.3103 26.278 21.4568C27.9369 19.6033 29 17.9536 29 16.0649C29 12.7325 26.3541 10 23.1261 10C22.2989 10 21.5771 10.2254 20.9432 10.5951C19.7861 11.2701 18.2131 11.2704 17.056 10.5954C16.4221 10.2255 15.7002 10 14.8734 10H14.8739ZM14.8739 11.4731C16.4451 11.4731 17.5611 12.4631 18.3886 13.8841C18.6614 14.354 19.3405 14.3535 19.6142 13.8841C20.4419 12.4631 21.555 11.4731 23.1262 11.4731C25.5721 11.4731 27.5708 13.5339 27.5708 16.0649C27.5708 17.375 26.8053 18.6937 25.2286 20.4551C24.052 21.7698 22.377 23.3822 20.4368 25.3164C19.6442 26.1066 18.3571 26.1057 17.5654 25.3146C15.6305 23.3813 13.9582 21.7697 12.7804 20.4551C11.2009 18.693 10.4297 17.3733 10.4297 16.0649C10.4297 13.534 12.4283 11.4731 14.8743 11.4731H14.8739Z" fill="#D4DCE2"/>
</svg>
