<svg width="38" height="38" viewBox="0 0 38 38" fill="none" xmlns="http://www.w3.org/2000/svg">
<circle cx="19" cy="19" r="19" fill="#264A51"/>
<path d="M8 18.98V20.012H5.36V18.98H8ZM11.216 16.304C10.96 16.304 10.716 16.352 10.484 16.448C10.252 16.536 10.004 16.684 9.74 16.892L9.2 16.088C9.544 15.808 9.884 15.612 10.22 15.5C10.564 15.38 10.92 15.32 11.288 15.32C11.688 15.32 12.04 15.38 12.344 15.5C12.648 15.612 12.9 15.768 13.1 15.968C13.3 16.168 13.448 16.404 13.544 16.676C13.648 16.948 13.7 17.244 13.7 17.564C13.7 18.132 13.484 18.716 13.052 19.316C12.62 19.916 12.028 20.58 11.276 21.308L10.556 22.004H13.844V23H9.272L9.044 22.148L10.076 21.116C10.5 20.692 10.86 20.316 11.156 19.988C11.46 19.652 11.704 19.348 11.888 19.076C12.08 18.804 12.22 18.552 12.308 18.32C12.396 18.088 12.44 17.856 12.44 17.624C12.44 17.232 12.336 16.916 12.128 16.676C11.92 16.428 11.616 16.304 11.216 16.304ZM18.3962 15.32C18.8282 15.32 19.2242 15.396 19.5842 15.548C19.9522 15.692 20.2682 15.924 20.5322 16.244C20.7962 16.556 21.0042 16.96 21.1562 17.456C21.3082 17.944 21.3842 18.532 21.3842 19.22C21.3842 19.908 21.3002 20.496 21.1322 20.984C20.9722 21.472 20.7522 21.876 20.4722 22.196C20.2002 22.516 19.8842 22.752 19.5242 22.904C19.1642 23.048 18.7842 23.12 18.3842 23.12C17.9522 23.12 17.5522 23.048 17.1842 22.904C16.8242 22.752 16.5082 22.52 16.2362 22.208C15.9722 21.888 15.7642 21.484 15.6122 20.996C15.4602 20.5 15.3842 19.908 15.3842 19.22C15.3842 18.564 15.4642 17.992 15.6242 17.504C15.7922 17.008 16.0122 16.6 16.2842 16.28C16.5642 15.96 16.8842 15.72 17.2442 15.56C17.6122 15.4 17.9962 15.32 18.3962 15.32ZM16.6682 19.22C16.6682 19.82 16.7162 20.312 16.8122 20.696C16.9082 21.072 17.0362 21.372 17.1962 21.596C17.3562 21.812 17.5402 21.964 17.7482 22.052C17.9562 22.132 18.1722 22.172 18.3962 22.172C18.6202 22.172 18.8362 22.128 19.0442 22.04C19.2522 21.944 19.4322 21.784 19.5842 21.56C19.7442 21.336 19.8682 21.036 19.9562 20.66C20.0522 20.276 20.1002 19.796 20.1002 19.22C20.1002 18.62 20.0522 18.132 19.9562 17.756C19.8602 17.372 19.7322 17.072 19.5722 16.856C19.4202 16.632 19.2402 16.48 19.0322 16.4C18.8242 16.312 18.6082 16.268 18.3842 16.268C18.1602 16.268 17.9442 16.316 17.7362 16.412C17.5282 16.5 17.3442 16.656 17.1842 16.88C17.0322 17.104 16.9082 17.408 16.8122 17.792C16.7162 18.168 16.6682 18.644 16.6682 19.22ZM24.3132 23L29.5572 14H30.3972L25.1532 23H24.3132ZM31.8132 20.852C31.8132 21.156 31.7692 21.448 31.6812 21.728C31.6012 22 31.4772 22.24 31.3092 22.448C31.1412 22.656 30.9292 22.82 30.6732 22.94C30.4252 23.06 30.1372 23.12 29.8092 23.12C29.4892 23.12 29.2052 23.06 28.9572 22.94C28.7092 22.82 28.5012 22.656 28.3332 22.448C28.1652 22.24 28.0372 22 27.9492 21.728C27.8692 21.448 27.8292 21.156 27.8292 20.852C27.8292 20.548 27.8732 20.26 27.9612 19.988C28.0572 19.716 28.1892 19.48 28.3572 19.28C28.5332 19.072 28.7452 18.908 28.9932 18.788C29.2412 18.668 29.5252 18.608 29.8452 18.608C30.1572 18.608 30.4332 18.668 30.6732 18.788C30.9212 18.908 31.1292 19.072 31.2972 19.28C31.4652 19.48 31.5932 19.716 31.6812 19.988C31.7692 20.26 31.8132 20.548 31.8132 20.852ZM30.8292 20.852C30.8292 20.66 30.8132 20.472 30.7812 20.288C30.7492 20.104 30.6932 19.94 30.6132 19.796C30.5412 19.652 30.4412 19.54 30.3132 19.46C30.1852 19.372 30.0292 19.328 29.8452 19.328C29.6612 19.328 29.5052 19.372 29.3772 19.46C29.2492 19.54 29.1412 19.648 29.0532 19.784C28.9732 19.92 28.9132 20.084 28.8732 20.276C28.8332 20.46 28.8132 20.652 28.8132 20.852C28.8132 21.06 28.8292 21.26 28.8612 21.452C28.9012 21.636 28.9612 21.8 29.0412 21.944C29.1212 22.08 29.2212 22.192 29.3412 22.28C29.4692 22.36 29.6252 22.4 29.8092 22.4C30.1692 22.4 30.4292 22.256 30.5892 21.968C30.7492 21.68 30.8292 21.308 30.8292 20.852ZM26.7372 16.244C26.7372 16.548 26.6932 16.84 26.6052 17.12C26.5172 17.392 26.3892 17.632 26.2212 17.84C26.0532 18.048 25.8452 18.212 25.5972 18.332C25.3492 18.452 25.0612 18.512 24.7332 18.512C24.4132 18.512 24.1292 18.452 23.8812 18.332C23.6332 18.212 23.4252 18.048 23.2572 17.84C23.0892 17.632 22.9612 17.392 22.8732 17.12C22.7932 16.84 22.7532 16.548 22.7532 16.244C22.7532 15.94 22.7972 15.652 22.8852 15.38C22.9812 15.108 23.1132 14.872 23.2812 14.672C23.4572 14.464 23.6692 14.3 23.9172 14.18C24.1652 14.06 24.4492 14 24.7692 14C25.0812 14 25.3572 14.06 25.5972 14.18C25.8452 14.3 26.0532 14.464 26.2212 14.672C26.3892 14.872 26.5172 15.108 26.6052 15.38C26.6932 15.652 26.7372 15.94 26.7372 16.244ZM25.7532 16.244C25.7532 16.052 25.7372 15.868 25.7052 15.692C25.6732 15.508 25.6172 15.348 25.5372 15.212C25.4652 15.068 25.3652 14.956 25.2372 14.876C25.1092 14.788 24.9532 14.744 24.7692 14.744C24.5852 14.744 24.4292 14.784 24.3012 14.864C24.1732 14.944 24.0652 15.056 23.9772 15.2C23.8972 15.336 23.8372 15.496 23.7972 15.68C23.7572 15.856 23.7372 16.044 23.7372 16.244C23.7372 16.452 23.7532 16.652 23.7852 16.844C23.8252 17.028 23.8852 17.192 23.9652 17.336C24.0452 17.472 24.1452 17.584 24.2652 17.672C24.3932 17.752 24.5492 17.792 24.7332 17.792C25.0852 17.792 25.3412 17.648 25.5012 17.36C25.6692 17.072 25.7532 16.7 25.7532 16.244Z" fill="white"/>
</svg>
