<svg width="129" height="148" viewBox="0 0 129 148" fill="none" xmlns="http://www.w3.org/2000/svg">
<rect width="129" height="148" rx="3" fill="#71B3C6" fill-opacity="0.85"/>
<path d="M34.8133 84C34.5299 84 34.2633 83.925 34.0133 83.775C33.7633 83.625 33.6383 83.4083 33.6383 83.125V66.575C33.6383 66.275 33.7716 66.0583 34.0383 65.925C34.3216 65.7917 34.6299 65.725 34.9633 65.725C35.2966 65.725 35.5966 65.7917 35.8633 65.925C36.1466 66.0583 36.2883 66.275 36.2883 66.575V81.65H42.7883C43.0549 81.65 43.2549 81.775 43.3883 82.025C43.5216 82.2583 43.5883 82.525 43.5883 82.825C43.5883 83.1083 43.5216 83.375 43.3883 83.625C43.2549 83.875 43.0549 84 42.7883 84H34.8133ZM47.6535 69.175C47.2368 69.175 46.8785 69.0333 46.5785 68.75C46.2785 68.4667 46.1285 68.15 46.1285 67.8C46.1285 67.4167 46.2785 67.0917 46.5785 66.825C46.8785 66.5583 47.2368 66.425 47.6535 66.425C48.0702 66.425 48.4202 66.5583 48.7035 66.825C49.0035 67.0917 49.1535 67.4167 49.1535 67.8C49.1535 68.15 49.0035 68.4667 48.7035 68.75C48.4202 69.0333 48.0702 69.175 47.6535 69.175ZM47.6535 84C47.2702 84 46.9535 83.9083 46.7035 83.725C46.4702 83.5417 46.3535 83.3417 46.3535 83.125V73C46.3535 72.75 46.4702 72.55 46.7035 72.4C46.9535 72.2333 47.2702 72.15 47.6535 72.15C48.0202 72.15 48.3285 72.2333 48.5785 72.4C48.8452 72.55 48.9785 72.75 48.9785 73V83.125C48.9785 83.3417 48.8452 83.5417 48.5785 83.725C48.3285 83.9083 48.0202 84 47.6535 84ZM57.1752 84.25C56.8919 84.25 56.6335 84.2 56.4002 84.1C56.1835 84.0167 56.0419 83.8917 55.9752 83.725L51.7752 73.6C51.7585 73.55 51.7335 73.4833 51.7002 73.4C51.6835 73.3167 51.6752 73.2417 51.6752 73.175C51.6752 72.9583 51.7669 72.7667 51.9502 72.6C52.1502 72.4333 52.3752 72.3 52.6252 72.2C52.8919 72.1 53.1419 72.05 53.3752 72.05C53.5419 72.05 53.7002 72.0917 53.8502 72.175C54.0169 72.2417 54.1252 72.3583 54.1752 72.525L57.1752 80.425L60.1252 72.575C60.1919 72.4083 60.2919 72.2833 60.4252 72.2C60.5585 72.1 60.7252 72.05 60.9252 72.05C61.1085 72.05 61.3335 72.1 61.6002 72.2C61.8835 72.3 62.1252 72.4417 62.3252 72.625C62.5419 72.7917 62.6502 72.975 62.6502 73.175C62.6502 73.2583 62.6419 73.3333 62.6252 73.4C62.6085 73.4667 62.5835 73.5333 62.5502 73.6L58.3752 83.725C58.2919 83.8917 58.1335 84.0167 57.9002 84.1C57.6835 84.2 57.4419 84.25 57.1752 84.25ZM66.676 69.175C66.2593 69.175 65.901 69.0333 65.601 68.75C65.301 68.4667 65.151 68.15 65.151 67.8C65.151 67.4167 65.301 67.0917 65.601 66.825C65.901 66.5583 66.2593 66.425 66.676 66.425C67.0926 66.425 67.4426 66.5583 67.726 66.825C68.026 67.0917 68.176 67.4167 68.176 67.8C68.176 68.15 68.026 68.4667 67.726 68.75C67.4426 69.0333 67.0926 69.175 66.676 69.175ZM66.676 84C66.2926 84 65.976 83.9083 65.726 83.725C65.4926 83.5417 65.376 83.3417 65.376 83.125V73C65.376 72.75 65.4926 72.55 65.726 72.4C65.976 72.2333 66.2926 72.15 66.676 72.15C67.0426 72.15 67.351 72.2333 67.601 72.4C67.8676 72.55 68.001 72.75 68.001 73V83.125C68.001 83.3417 67.8676 83.5417 67.601 83.725C67.351 83.9083 67.0426 84 66.676 84ZM73.1477 84C72.7643 84 72.4477 83.9083 72.1977 83.725C71.9643 83.5417 71.8477 83.3417 71.8477 83.125V73C71.8477 72.75 71.9643 72.55 72.1977 72.4C72.4477 72.2333 72.7643 72.15 73.1477 72.15C73.4643 72.15 73.7393 72.2333 73.9727 72.4C74.206 72.55 74.3227 72.75 74.3227 73V73.9C74.5727 73.4167 74.981 72.9833 75.5477 72.6C76.131 72.2 76.8393 72 77.6727 72C78.456 72 79.1727 72.225 79.8227 72.675C80.4893 73.1083 81.0227 73.7 81.4227 74.45C81.8227 75.1833 82.0227 76.0083 82.0227 76.925V83.125C82.0227 83.4083 81.881 83.625 81.5977 83.775C81.331 83.925 81.031 84 80.6977 84C80.3977 84 80.106 83.925 79.8227 83.775C79.5393 83.625 79.3977 83.4083 79.3977 83.125V76.925C79.3977 76.4917 79.281 76.075 79.0477 75.675C78.831 75.275 78.531 74.95 78.1477 74.7C77.7643 74.45 77.3393 74.325 76.8727 74.325C76.4727 74.325 76.0893 74.4333 75.7227 74.65C75.356 74.85 75.056 75.1417 74.8227 75.525C74.5893 75.9083 74.4727 76.375 74.4727 76.925V83.125C74.4727 83.3417 74.3393 83.5417 74.0727 83.725C73.8227 83.9083 73.5143 84 73.1477 84ZM90.2406 89.625C89.274 89.625 88.3823 89.4833 87.5656 89.2C86.749 88.9333 86.099 88.5417 85.6156 88.025C85.1323 87.5083 84.8906 86.8917 84.8906 86.175C84.8906 85.5083 85.0823 84.95 85.4656 84.5C85.849 84.0667 86.299 83.7333 86.8156 83.5C86.4823 83.35 86.2073 83.15 85.9906 82.9C85.774 82.65 85.6656 82.3 85.6656 81.85C85.6656 81.3833 85.7823 81.0083 86.0156 80.725C86.249 80.4417 86.549 80.1833 86.9156 79.95C86.449 79.5833 86.0823 79.1333 85.8156 78.6C85.5656 78.05 85.4406 77.45 85.4406 76.8V76.1C85.4406 75.3 85.6323 74.5917 86.0156 73.975C86.399 73.3583 86.9406 72.875 87.6406 72.525C88.3573 72.175 89.174 72 90.0906 72C90.6573 72 91.1823 72.075 91.6656 72.225C92.1656 72.375 92.6073 72.5833 92.9906 72.85C93.2573 72.2333 93.524 71.8 93.7906 71.55C94.074 71.3 94.3406 71.175 94.5906 71.175C94.9406 71.175 95.2073 71.275 95.3906 71.475C95.574 71.675 95.6656 71.875 95.6656 72.075C95.6656 72.2083 95.624 72.3333 95.5406 72.45C95.474 72.55 95.374 72.6333 95.2406 72.7C95.074 72.7833 94.874 72.9 94.6406 73.05C94.424 73.1833 94.2073 73.4 93.9906 73.7C94.274 74.0167 94.4823 74.3833 94.6156 74.8C94.749 75.2167 94.8156 75.65 94.8156 76.1V76.8C94.8156 77.5833 94.6156 78.2917 94.2156 78.925C93.8156 79.5583 93.2573 80.0583 92.5406 80.425C91.824 80.775 91.0073 80.95 90.0906 80.95C89.4406 80.95 88.8656 80.85 88.3656 80.65C88.2323 80.7333 88.1156 80.8333 88.0156 80.95C87.9323 81.05 87.8906 81.1833 87.8906 81.35C87.8906 81.65 88.074 81.8667 88.4406 82C88.8073 82.1333 89.274 82.2333 89.8406 82.3C90.424 82.3667 91.0406 82.45 91.6906 82.55C92.3406 82.65 92.949 82.8167 93.5156 83.05C94.099 83.2667 94.574 83.5917 94.9406 84.025C95.3073 84.475 95.4906 85.0833 95.4906 85.85C95.4906 86.7167 95.249 87.425 94.7656 87.975C94.2823 88.5417 93.6406 88.9583 92.8406 89.225C92.0573 89.4917 91.1906 89.625 90.2406 89.625ZM90.1906 87.875C91.0073 87.875 91.6656 87.6917 92.1656 87.325C92.6823 86.975 92.9406 86.5083 92.9406 85.925C92.9406 85.5083 92.8156 85.1833 92.5656 84.95C92.3156 84.7167 91.9906 84.5417 91.5906 84.425C91.1906 84.3083 90.7656 84.225 90.3156 84.175C89.8823 84.125 89.4656 84.075 89.0656 84.025C88.599 84.1917 88.199 84.425 87.8656 84.725C87.549 85.0417 87.3906 85.4333 87.3906 85.9C87.3906 86.5167 87.649 87 88.1656 87.35C88.699 87.7 89.374 87.875 90.1906 87.875ZM90.1406 79.275C90.8073 79.275 91.324 79.0417 91.6906 78.575C92.074 78.1083 92.2656 77.5167 92.2656 76.8V76.1C92.2656 75.4167 92.074 74.8417 91.6906 74.375C91.324 73.9083 90.799 73.675 90.1156 73.675C89.4323 73.675 88.9073 73.9083 88.5406 74.375C88.174 74.8417 87.9906 75.4167 87.9906 76.1V76.775C87.9906 77.475 88.174 78.0667 88.5406 78.55C88.9073 79.0333 89.4406 79.275 90.1406 79.275Z" fill="white"/>
</svg>
