<svg width="129" height="148" viewBox="0 0 129 148" fill="none" xmlns="http://www.w3.org/2000/svg">
<rect width="129" height="148" rx="3" fill="#71B3C6" fill-opacity="0.85"/>
<path d="M46.4725 84C46.1225 84 45.8391 83.9167 45.6225 83.75C45.4058 83.5833 45.2975 83.3833 45.2975 83.15V66.6C45.2975 66.3167 45.4225 66.1 45.6725 65.95C45.9225 65.8 46.1891 65.725 46.4725 65.725H51.0225C51.9225 65.725 52.7558 65.8417 53.5225 66.075C54.2891 66.3083 54.9058 66.7417 55.3725 67.375C55.8391 67.9917 56.0725 68.8833 56.0725 70.05C56.0725 71.1 55.8808 71.9667 55.4975 72.65C55.1308 73.3333 54.6141 73.8167 53.9475 74.1C54.4641 74.3 54.9141 74.5667 55.2975 74.9C55.6808 75.2167 55.9808 75.65 56.1975 76.2C56.4141 76.7333 56.5225 77.425 56.5225 78.275V78.75C56.5225 80.0333 56.3058 81.0583 55.8725 81.825C55.4391 82.5917 54.8475 83.15 54.0975 83.5C53.3475 83.8333 52.4975 84 51.5475 84H46.4725ZM47.9225 81.65H51.0475C51.9475 81.65 52.6391 81.4083 53.1225 80.925C53.6225 80.425 53.8725 79.6333 53.8725 78.55V78.15C53.8725 77.05 53.6225 76.275 53.1225 75.825C52.6391 75.375 51.9475 75.15 51.0475 75.15H47.9225V81.65ZM47.9225 73.05H50.9225C51.7725 73.05 52.3975 72.8333 52.7975 72.4C53.2141 71.9667 53.4225 71.325 53.4225 70.475C53.4225 69.9083 53.3141 69.45 53.0975 69.1C52.8975 68.75 52.6058 68.4917 52.2225 68.325C51.8391 68.1583 51.3891 68.075 50.8725 68.075H47.9225V73.05ZM65.3158 84.2C64.1825 84.2 63.1825 83.9917 62.3158 83.575C61.4492 83.1583 60.7658 82.5833 60.2658 81.85C59.7658 81.1 59.5158 80.225 59.5158 79.225V76.85C59.5158 75.9667 59.7492 75.1583 60.2158 74.425C60.6992 73.6917 61.3325 73.1083 62.1158 72.675C62.8992 72.225 63.7658 72 64.7158 72C65.6158 72 66.4408 72.2 67.1908 72.6C67.9408 72.9833 68.5408 73.525 68.9908 74.225C69.4575 74.925 69.6908 75.725 69.6908 76.625C69.6908 77.325 69.5825 77.825 69.3658 78.125C69.1492 78.425 68.8658 78.6083 68.5158 78.675C68.1658 78.7417 67.7992 78.775 67.4158 78.775H62.1408V79.35C62.1408 80.1833 62.4408 80.85 63.0408 81.35C63.6575 81.8333 64.4408 82.075 65.3908 82.075C65.9742 82.075 66.4492 81.9917 66.8158 81.825C67.1825 81.6583 67.4908 81.5 67.7408 81.35C67.9908 81.2 68.2242 81.125 68.4408 81.125C68.6575 81.125 68.8408 81.1917 68.9908 81.325C69.1408 81.4583 69.2575 81.6167 69.3408 81.8C69.4242 81.9833 69.4658 82.15 69.4658 82.3C69.4658 82.55 69.2908 82.825 68.9408 83.125C68.6075 83.425 68.1325 83.6833 67.5158 83.9C66.8992 84.1 66.1658 84.2 65.3158 84.2ZM62.1408 77.15H66.2908C66.6575 77.15 66.8992 77.1 67.0158 77C67.1492 76.9 67.2158 76.7 67.2158 76.4C67.2158 75.9667 67.1075 75.5667 66.8908 75.2C66.6742 74.8167 66.3742 74.525 65.9908 74.325C65.6075 74.1083 65.1742 74 64.6908 74C64.2242 74 63.7992 74.1 63.4158 74.3C63.0325 74.5 62.7242 74.775 62.4908 75.125C62.2575 75.475 62.1408 75.8833 62.1408 76.35V77.15ZM76.9061 84.2C76.1227 84.2 75.3977 83.9667 74.7311 83.5C74.0644 83.0333 73.5227 82.425 73.1061 81.675C72.7061 80.9083 72.5061 80.0917 72.5061 79.225V76.925C72.5061 76.0083 72.7061 75.1833 73.1061 74.45C73.5227 73.7 74.0644 73.1083 74.7311 72.675C75.3977 72.225 76.1394 72 76.9561 72C77.7561 72 78.4311 72.2 78.9811 72.6C79.5311 72.9833 79.9394 73.4167 80.2061 73.9V65.95C80.2061 65.7 80.3394 65.5 80.6061 65.35C80.8727 65.1833 81.1894 65.1 81.5561 65.1C81.9227 65.1 82.2227 65.1833 82.4561 65.35C82.7061 65.5 82.8311 65.7 82.8311 65.95V83.125C82.8311 83.3417 82.7061 83.5417 82.4561 83.725C82.2227 83.9083 81.9227 84 81.5561 84C81.2394 84 80.9561 83.9083 80.7061 83.725C80.4727 83.5417 80.3561 83.3417 80.3561 83.125V82.25C80.1061 82.7667 79.6644 83.225 79.0311 83.625C78.3977 84.0083 77.6894 84.2 76.9061 84.2ZM77.6561 81.875C78.1394 81.875 78.5727 81.7417 78.9561 81.475C79.3394 81.2083 79.6394 80.9167 79.8561 80.6C80.0894 80.2667 80.2061 80 80.2061 79.8V76.925C80.2061 76.375 80.0811 75.9083 79.8311 75.525C79.5811 75.1417 79.2644 74.85 78.8811 74.65C78.4977 74.4333 78.0977 74.325 77.6811 74.325C77.2144 74.325 76.7811 74.45 76.3811 74.7C75.9977 74.95 75.6894 75.275 75.4561 75.675C75.2394 76.075 75.1311 76.4917 75.1311 76.925V79.225C75.1311 79.6583 75.2394 80.0833 75.4561 80.5C75.6894 80.9167 75.9977 81.25 76.3811 81.5C76.7644 81.75 77.1894 81.875 77.6561 81.875Z" fill="white"/>
</svg>
