<svg width="38" height="37" viewBox="0 0 38 37" fill="none" xmlns="http://www.w3.org/2000/svg">
<path d="M37.3784 18.5C37.3784 28.4416 29.3266 36.5 19.3952 36.5C9.46386 36.5 1.41211 28.4416 1.41211 18.5C1.41211 8.55844 9.46386 0.5 19.3952 0.5C29.3266 0.5 37.3784 8.55844 37.3784 18.5Z" stroke="#F6FDFF"/>
<path d="M29.8859 13.7736C29.2249 14.0768 28.5142 14.279 27.7644 14.3746C28.5268 13.906 29.1131 13.1586 29.3884 12.2755C28.6751 12.7086 27.885 13.0265 27.0442 13.1941C26.3728 12.4572 25.4152 12 24.3542 12C22.3161 12 20.6644 13.6957 20.6644 15.7862C20.6644 16.082 20.6978 16.3702 20.7608 16.65C17.6948 16.4905 14.9756 14.9814 13.1563 12.691C12.8367 13.2505 12.6569 13.906 12.6569 14.5976C12.6569 15.9121 13.3068 17.069 14.2979 17.7509C13.6929 17.7316 13.1236 17.5575 12.6251 17.278C12.6251 17.2895 12.6251 17.3064 12.6251 17.3224C12.6251 19.1592 13.8973 20.6886 15.5836 21.0368C15.2753 21.1242 14.9497 21.1728 14.614 21.1728C14.3757 21.1728 14.1436 21.1448 13.9187 21.103C14.3882 22.604 15.7506 23.7013 17.3645 23.7336C16.1017 24.7474 14.5114 25.3546 12.7819 25.3546C12.483 25.3546 12.1911 25.337 11.9023 25.3008C13.5358 26.372 15.4759 27 17.5585 27C24.3445 27 28.0566 21.2296 28.0566 16.2238C28.0566 16.0598 28.0516 15.8964 28.044 15.735C28.7686 15.2054 29.3928 14.537 29.8859 13.7736Z" fill="#3A5B62"/>
</svg>
