<svg width="38" height="37" viewBox="0 0 38 37" fill="none" xmlns="http://www.w3.org/2000/svg">
<path d="M37.4223 18.5C37.4223 28.4416 29.3706 36.5 19.4392 36.5C9.50781 36.5 1.45605 28.4416 1.45605 18.5C1.45605 8.55844 9.50781 0.5 19.4392 0.5C29.3706 0.5 37.4223 8.55844 37.4223 18.5Z" stroke="#F6FDFF"/>
<path d="M16.7327 12C14.6444 12 12.9453 13.7017 12.9453 15.7923V21.2087C12.9453 23.2991 14.6454 25 16.7342 25H22.1456C24.2341 25 25.9335 23.2983 25.9335 21.2077V15.7908C25.9335 13.7007 24.2333 12 22.1446 12H16.7327ZM23.3358 14.08C23.6226 14.08 23.8554 14.313 23.8554 14.6C23.8554 14.887 23.6226 15.12 23.3358 15.12C23.0491 15.12 22.8163 14.887 22.8163 14.6C22.8163 14.313 23.0491 14.08 23.3358 14.08ZM19.4394 15.12C21.3019 15.12 22.8163 16.6358 22.8163 18.5C22.8163 20.3642 21.3016 21.88 19.4394 21.88C17.5769 21.88 16.0625 20.3639 16.0625 18.5C16.0625 16.6361 17.5769 15.12 19.4394 15.12ZM19.4394 16.16C18.1481 16.16 17.1015 17.2075 17.1015 18.5C17.1015 19.7925 18.1481 20.84 19.4394 20.84C20.7307 20.84 21.7773 19.7925 21.7773 18.5C21.7773 17.2075 20.7307 16.16 19.4394 16.16Z" fill="#3A5B62"/>
</svg>
