<svg width="37" height="37" viewBox="0 0 37 37" fill="none" xmlns="http://www.w3.org/2000/svg">
<ellipse cx="18.4831" cy="18.5" rx="18.4831" ry="18.5" fill="#3A5B62"/>
<path d="M18.4834 11C14.3454 11 10.9902 14.3756 10.9902 18.5387C10.9902 22.3182 13.7578 25.4392 17.3632 25.9843V20.5365H15.5092V18.5549H17.3632V17.2363C17.3632 15.0532 18.4203 14.0952 20.2238 14.0952C21.0873 14.0952 21.5446 14.1599 21.7605 14.1889V15.9184H20.5305C19.765 15.9184 19.4976 16.6491 19.4976 17.472V18.5549H21.7412L21.4371 20.5365H19.4976V26C23.1548 25.5013 25.9766 22.3553 25.9766 18.5387C25.9766 14.3756 22.6216 11 18.4834 11Z" fill="#F6FDFF"/>
</svg>
