<svg width="38" height="37" viewBox="0 0 38 37" fill="none" xmlns="http://www.w3.org/2000/svg">
<path d="M37.3354 18.5C37.3354 28.4416 29.2837 36.5 19.3523 36.5C9.42089 36.5 1.36914 28.4416 1.36914 18.5C1.36914 8.55844 9.42089 0.5 19.3523 0.5C29.2837 0.5 37.3354 8.55844 37.3354 18.5Z" stroke="#F6FDFF"/>
<path d="M29.3122 14.2344C29.1367 13.3409 28.3006 12.6903 27.3303 12.4872C25.8783 12.2031 23.1911 12 20.2836 12C17.3779 12 14.6477 12.2031 13.1939 12.4872C12.2254 12.6903 11.3875 13.2997 11.2121 14.2344C11.0349 15.25 10.8594 16.6719 10.8594 18.5C10.8594 20.3281 11.0349 21.75 11.2551 22.7656C11.4323 23.6591 12.2684 24.3097 13.2369 24.5128C14.7784 24.7969 17.4209 25 20.3283 25C23.2358 25 25.8783 24.7969 27.4198 24.5128C28.3883 24.3097 29.2244 23.7003 29.4016 22.7656C29.5771 21.75 29.7973 20.2869 29.8421 18.5C29.7526 16.6719 29.5324 15.25 29.3122 14.2344ZM17.9061 21.3438V15.6562L23.2788 18.5L17.9061 21.3438Z" fill="#3A5B62"/>
</svg>
